<?xml version="1.0" encoding="iso-8859-1"?>
<!-- Uploaded to: SVG Repo, www.svgrepo.com, Generator: SVG Repo Mixer Tools -->
<!DOCTYPE svg PUBLIC "-//W3C//DTD SVG 1.1//EN" "http://www.w3.org/Graphics/SVG/1.1/DTD/svg11.dtd">
<svg fill="#000000" version="1.1" id="Capa_1" xmlns="http://www.w3.org/2000/svg" xmlns:xlink="http://www.w3.org/1999/xlink" 
	 width="800px" height="800px" viewBox="0 0 460.529 460.529"
	 xml:space="preserve">
<g>
	<g>
		<path d="M371.983,141.72C371.983,63.576,308.407,0,230.265,0C152.122,0,88.546,63.576,88.546,141.72
			c0,47.74,23.752,90.01,60.035,115.7v191.301c0,4.637,2.711,8.838,6.932,10.754c1.562,0.709,3.224,1.055,4.878,1.055
			c2.804,0,5.583-1.002,7.779-2.924l62.1-54.361l62.094,54.361c3.484,3.045,8.431,3.783,12.658,1.869
			c4.221-1.916,6.933-6.117,6.933-10.754V257.42C348.229,231.725,371.983,189.456,371.983,141.72z M172.2,270.948
			c3.114,1.407,6.269,2.733,9.498,3.915v139.506l-9.498,8.314V270.948z M222.491,378.662l-17.173,15.033v-112.5
			c8.103,1.447,16.429,2.244,24.946,2.244c8.511,0,16.837-0.797,24.939-2.244v112.488l-17.154-15.021
			C233.596,374.762,226.943,374.762,222.491,378.662z M288.334,422.684l-9.511-8.328V274.863c3.229-1.182,6.39-2.512,9.511-3.92
			V422.684z M230.264,259.819c-65.121,0-118.099-52.978-118.099-118.099c0-65.123,52.978-118.1,118.099-118.1
			s118.097,52.977,118.097,118.1C348.362,206.841,295.385,259.819,230.264,259.819z"/>
		<path d="M230.264,36.988c-57.752,0-104.732,46.979-104.732,104.732c0,57.752,46.98,104.73,104.732,104.73
			c57.751,0,104.732-46.979,104.732-104.73C334.997,83.967,288.016,36.988,230.264,36.988z M230.264,222.831
			c-44.726,0-81.113-36.385-81.113-81.111c0-44.725,36.388-81.112,81.113-81.112c44.724,0,81.113,36.388,81.113,81.112
			C311.377,186.447,274.989,222.831,230.264,222.831z"/>
		<path d="M230.264,104.687c-6.522,0-11.81,5.289-11.81,11.811v53.271c0,6.521,5.287,11.81,11.81,11.81
			c6.521,0,11.81-5.288,11.81-11.81v-53.271C242.075,109.976,236.785,104.687,230.264,104.687z"/>
	</g>
</g>
</svg>